<?xml version="1.0" encoding="utf-8"?>
<!-- Generator: Adobe Illustrator 23.0.6, SVG Export Plug-In . SVG Version: 6.00 Build 0)  -->
<svg version="1.1" id="Calque_1" xmlns="http://www.w3.org/2000/svg" xmlns:xlink="http://www.w3.org/1999/xlink" x="0px" y="0px"
	 viewBox="0 0 2048 249.5" style="enable-background:new 0 0 2048 249.5;" xml:space="preserve">
<style type="text/css">
	.st0{opacity:0.1;fill:#FFFFFF;enable-background:new    ;}
	.st1{opacity:0.2;fill:#FFFFFF;enable-background:new    ;}
	.st2{fill:#FFFFFF;}
</style>
<title>wave</title>
<g>
	<g>
		<path class="st0" d="M2.2,57.6C131.5,59,213,96.4,418.3,143c136.8,31.1,358.7,41.9,665.8,32.6C671.2,280.4,310.6,276.7,2.2,164.5"
			/>
		<path class="st0" d="M144.7,206.9c252.9-46.3,464.9-74.4,636.1-84.3s376.8-5.4,616.9,13.5c-68.3,1.5-240.5,28.2-516.4,80.1
			S359.8,265,144.7,206.9z"/>
		<path id="Path-4" class="st1" d="M1493.2,131.3c120.9-31.9,332.3-48.6,560.2-16.4v113.8C1814.2,168.7,1627.5,136.2,1493.2,131.3z"
			/>
	</g>
	<path class="st2" d="M0,151.8c80.7,27.3,139.3,45.2,175.8,53.9c82.2,19.4,157.5,26.2,211.3,30.8c56.1,4.7,177.6,3.3,269.4-2.6
		c36.7-2.3,82.3-7.5,136.7-15.5s92.4-14.6,113.9-19.7c38.6-8,107.9-24.9,129.4-29.7c75.4-16.8,130.1-33.6,183.5-43.1
		c94.6-16.7,141.6-19.1,220.7-22c70.6,1.5,122.9,3.9,156.9,7c57.7,5.5,124.6,17.7,162.7,24.1c72,12.1,169.6,35.9,292.9,71.4
		l0.5,45.6L0.9,251.5L0,151.8z"/>
</g>
</svg>
