<?xml version="1.0" encoding="utf-8"?>
<!-- Generator: Adobe Illustrator 23.0.6, SVG Export Plug-In . SVG Version: 6.00 Build 0)  -->
<svg version="1.1" id="Calque_1" xmlns="http://www.w3.org/2000/svg" xmlns:xlink="http://www.w3.org/1999/xlink" x="0px" y="0px"
	 viewBox="0 0 2048 249.5" style="enable-background:new 0 0 2048 249.5;" xml:space="preserve">
<style type="text/css">
	.st0{fill:#FFFFFF;}
	.st1{opacity:0.1;fill:#FFFFFF;enable-background:new    ;}
	.st2{opacity:0.2;fill:#FFFFFF;enable-background:new    ;}
</style>
<g>
	<g transform="translate(-1.000000, -14.000000)">
		<g>
			<path class="st0" d="M2049,119.5c-80.3-28-138.7-46.5-175-55.5c-81.8-20.2-156.9-27.7-210.6-32.7c-55.9-5.2-177.3-5-268.9,0
				c-36.6,2-82.2,6.7-136.6,14.2c-55.3,8.2-93.3,14.4-113.8,18.5c-38.7,7.7-107.9,23.9-129.5,28.5c-75.4,16.1-130.1,32.3-183.6,41.3
				c-94.6,15.8-141.5,17.7-220.6,19.9c-70.4-2.2-122.6-5-156.5-8.5c-57.5-6-124.2-18.9-162.2-25.6C220,106.8,122.8,82.2,0,45.5V0
				h2049V119.5z"/>
		</g>
		<g transform="translate(1.000000, 15.000000)">
			<g transform="translate(719.500000, 68.500000) rotate(-180.000000) translate(-719.500000, -68.500000) ">
				<path class="st1" d="M-609-64.3C-479.9-63-398.5-25.6-193.6,21C-57,52,164.5,62.8,471,53.4C58.8,158.1-301.2,154.4-609,42.4"/>
				<path class="st1" d="M-466.7,84.7C-214.3,38.5-2.6,10.5,168.2,0.6S544.3-4.8,784,14.1C715.8,15.6,544,42.2,268.5,94
					S-252,142.7-466.7,84.7z"/>
				<path class="st2" d="M879.4,9.2c120.7-31.8,331.7-48.4,559.2-16.3v113.6C1199.8,46.6,1013.4,14.2,879.4,9.2z"/>
			</g>
		</g>
	</g>
</g>
</svg>
