<svg id="Calque_1" data-name="Calque 1" xmlns="http://www.w3.org/2000/svg" viewBox="0 0 2048 249.5">
  <defs>
    <style>
      .cls-1, .cls-2, .cls-3 {
        fill: #fff;
      }

      .cls-1 {
        opacity: 0.1;
      }

      .cls-1, .cls-2 {
        isolation: isolate;
      }

      .cls-2 {
        opacity: 0.2;
      }
    </style>
  </defs>
  <title>wave</title>
  <g>
    <g>
      <path class="cls-1" d="M2.2,54.6C131.5,56,213,93.4,418.3,140q205.2,46.6,665.8,32.6Q464.8,329.8,2.2,161.5"/>
      <path class="cls-1" d="M144.7,203.9q379.3-69.5,636.1-84.3t616.9,13.5q-102.5,2.3-516.4,80.1T144.7,203.9Z"/>
      <path id="Path-4" class="cls-2" d="M1493.2,128.3c120.9-31.9,332.3-48.6,560.2-16.4V225.7Q1694.6,135.7,1493.2,128.3Z"/>
    </g>
    <path class="cls-3" d="M0,148.8q121.1,40.9,175.8,53.9c82.2,19.4,157.5,26.2,211.3,30.8,56.1,4.7,177.6,3.3,269.4-2.6q55.1-3.5,136.7-15.5t113.9-19.7c38.6-8,107.9-24.9,129.4-29.7,75.4-16.8,130.1-33.6,183.5-43.1,94.6-16.7,141.6-19.1,220.7-22q105.9,2.3,156.9,7c57.7,5.5,124.6,17.7,162.7,24.1q108,18.1,292.9,71.4l.5,45.6L.9,248.5Z"/>
  </g>
</svg>
